<?xml version="1.0" standalone="no"?>
<!DOCTYPE svg PUBLIC "-//W3C//DTD SVG 20010904//EN"
 "http://www.w3.org/TR/2001/REC-SVG-20010904/DTD/svg10.dtd">
<svg version="1.0" xmlns="http://www.w3.org/2000/svg"
 width="700.000000pt" height="700.000000pt" viewBox="0 0 700.000000 700.000000"
 preserveAspectRatio="xMidYMid meet">
<metadata>
Created by potrace 1.14, written by Peter Selinger 2001-2017
</metadata>
<g transform="translate(0.000000,700.000000) scale(0.100000,-0.100000)"
fill="#000000" stroke="none">
<path d="M4445 6260 c-39 -15 -40 -18 -91 -245 -14 -60 -27 -118 -30 -127 -2
-10 -6 -26 -8 -35 -10 -40 -48 -210 -53 -240 -4 -25 0 -37 18 -55 23 -23 29
-24 179 -23 85 1 165 5 177 9 30 10 45 53 32 92 -4 11 -10 34 -13 50 -2 16 -7
38 -10 49 -2 11 -25 108 -51 215 -26 107 -48 204 -51 214 -16 80 -51 114 -99
96z"/>
<path d="M6156 5529 c-21 -12 -44 -25 -50 -30 -6 -6 -112 -73 -236 -150 -124
-76 -231 -147 -237 -156 -28 -37 -15 -59 108 -182 120 -119 140 -132 178 -112
14 8 92 127 194 296 7 11 29 46 50 78 20 32 37 61 37 63 0 3 13 25 30 49 45
66 53 91 35 124 -23 46 -50 51 -109 20z"/>
<path d="M2687 5528 c-9 -7 -19 -26 -22 -43 -6 -35 -7 -34 194 -355 136 -216
153 -238 199 -246 20 -4 252 231 258 260 2 14 -3 33 -14 45 -27 32 -549 351
-575 351 -13 0 -31 -6 -40 -12z"/>
<path d="M4437 5074 c-1 -1 -38 -4 -82 -7 -105 -8 -132 -13 -242 -44 -234 -64
-411 -169 -588 -347 -144 -145 -247 -307 -315 -493 l-22 -63 40 -64 c38 -61
90 -165 125 -247 13 -32 19 -36 53 -37 189 -6 469 -88 619 -180 183 -113 266
-182 403 -336 138 -155 265 -421 309 -649 l17 -88 62 -29 62 -30 66 25 c174
65 325 163 462 300 162 161 231 267 324 500 49 121 74 272 74 440 1 155 -5
212 -35 330 -91 369 -333 682 -669 862 -178 96 -392 151 -601 157 -33 1 -61 1
-62 0z"/>
<path d="M1705 4229 c-125 -17 -209 -42 -320 -93 -319 -147 -553 -471 -591
-816 -15 -139 -4 -282 31 -402 13 -46 57 -164 98 -263 51 -122 71 -182 63
-186 -6 -4 -47 -14 -91 -24 -44 -9 -87 -18 -95 -20 -36 -10 -97 -24 -123 -29
-254 -45 -484 -226 -596 -467 -54 -118 -75 -212 -76 -339 0 -127 7 -186 33
-265 44 -136 114 -248 218 -350 125 -123 304 -211 470 -232 38 -4 875 -8 1859
-7 1767 1 1791 2 1865 22 100 27 206 89 282 167 120 120 178 254 183 420 2 59
-2 126 -10 163 -22 100 -86 219 -160 298 -36 38 -65 75 -65 82 0 27 -40 52
-83 52 -24 0 -47 4 -52 9 -16 13 -107 40 -195 56 -14 2 -64 12 -111 21 l-86
16 1 207 c1 171 -2 219 -18 281 -79 315 -329 557 -645 625 -64 14 -283 15
-341 1 -14 -3 -56 -10 -95 -16 -38 -5 -88 -13 -111 -16 l-41 -6 -13 63 c-6 35
-14 75 -16 89 -3 14 -7 32 -9 40 -3 8 -7 33 -11 55 -11 69 -53 203 -86 273
-150 314 -464 546 -798 588 -70 9 -210 11 -265 3z"/>
<path d="M6305 3938 c-11 -6 -23 -16 -27 -22 -4 -6 -8 -86 -8 -177 0 -155 1
-167 21 -188 25 -27 6 -30 329 45 363 84 357 82 370 114 14 35 4 75 -23 88
-18 9 -175 48 -270 67 -10 3 -26 6 -35 9 -9 3 -28 7 -42 10 -14 2 -52 11 -85
19 -46 12 -210 48 -210 47 0 0 -9 -6 -20 -12z"/>
<path d="M5752 2472 c-65 -65 -121 -124 -124 -132 -16 -43 15 -68 287 -236
148 -92 275 -169 282 -171 28 -11 64 8 78 40 15 37 14 40 -68 170 -29 46 -57
92 -64 102 -124 201 -198 317 -209 326 -40 33 -61 21 -182 -99z"/>
</g>
</svg>
